<svg width="360" height="800" viewBox="0 0 360 800" fill="none" xmlns="http://www.w3.org/2000/svg">
<mask id="mask0_1026_27219" style="mask-type:alpha" maskUnits="userSpaceOnUse" x="0" y="0" width="360" height="800">
<rect width="360" height="800" fill="#D9D9D9"/>
</mask>
<g mask="url(#mask0_1026_27219)">
<path d="M523.491 62.649L492.451 58.708C491.761 52.5915 490.646 46.5306 489.114 40.569L518.046 25.308C519.386 24.791 519.605 22.108 518.534 19.297L514.166 7.858C513.093 5.051 511.138 3.18902 509.796 3.70102L477.771 11.486C474.702 5.71832 471.213 0.184358 467.332 -5.07101L485.372 -28.089C486.387 -29.106 485.486 -31.653 483.363 -33.776L474.705 -42.434C472.581 -44.558 470.034 -45.458 469.021 -44.443L446.741 -27.183C441.364 -31.804 435.628 -35.9905 429.587 -39.703L440.8 -70.328C441.459 -71.603 439.831 -73.755 437.163 -75.137L426.289 -80.761C423.619 -82.138 420.918 -82.226 420.259 -80.95L401.089 -52.8C392.723 -55.5018 384.11 -57.365 375.375 -58.362L371.436 -89.4C371.436 -90.838 369 -92 365.995 -92H353.751C350.751 -92 348.31 -90.836 348.31 -89.4L344.541 -58.343C336.005 -57.3601 327.585 -55.5492 319.4 -52.936L301.24 -84.236C300.68 -85.557 297.983 -85.688 295.213 -84.52L283.936 -79.758C281.17 -78.591 279.374 -76.567 279.936 -75.246L290.167 -39.481C284.048 -35.7 278.245 -31.4301 272.815 -26.713L249.935 -44.437C248.919 -45.452 246.374 -44.556 244.248 -42.428L235.592 -33.774C233.468 -31.65 232.568 -29.101 233.583 -28.086L252.218 -4.30502C248.301 1.07826 244.793 6.74784 241.724 12.656L210.38 5.17697C209.036 4.67697 207.088 6.538 206.027 9.353L201.705 20.8C200.646 23.611 200.876 26.3 202.219 26.812L230.707 41.685C229.315 47.2856 228.289 52.971 227.636 58.705L196.6 62.649C195.163 62.649 194 65.083 194 68.087V80.331C194 83.331 195.165 85.775 196.6 85.775L227.659 89.541C228.493 96.7317 229.914 103.842 231.908 110.801L203.979 127.342C202.662 127.909 202.56 130.608 203.752 133.368L208.615 144.603C209.807 147.358 211.846 149.135 213.165 148.566L243.905 139.466C248.273 147.198 253.402 154.475 259.214 161.189L240.249 185.389C239.234 186.409 240.134 188.954 242.258 191.078L250.916 199.736C253.04 201.862 255.585 202.761 256.6 201.745L281.986 182.08C286.084 185.046 290.348 187.777 294.755 190.26L286.036 218.987C285.457 220.299 287.216 222.347 289.963 223.563L301.168 228.502C303.915 229.716 306.613 229.632 307.194 228.323L322.976 202.092C330.086 204.146 337.355 205.603 344.708 206.448L348.65 237.484C348.65 238.922 351.085 240.084 354.09 240.084H366.333C369.333 240.084 371.776 238.919 371.776 237.484L375.543 206.428C382.523 205.618 389.427 204.254 396.191 202.35L408.579 228.01C409.036 229.375 411.714 229.71 414.566 228.752L426.173 224.86C429.022 223.904 430.963 222.023 430.506 220.66L424.37 190.811C429.209 188.135 433.877 185.16 438.347 181.905L463.674 201.522C464.69 202.537 467.235 201.641 469.361 199.514L478.019 190.858C480.142 188.735 481.043 186.186 480.027 185.17L461.063 160.97C466.728 154.398 471.738 147.289 476.023 139.744L503.707 149.863C504.986 150.514 507.131 148.869 508.494 146.196L514.051 135.284C515.414 132.605 515.482 129.908 514.203 129.254L488.003 111.43C490.092 104.271 491.574 96.9475 492.432 89.539L523.492 85.773C524.929 85.773 526.092 83.333 526.092 80.329V68.088C526.093 65.083 524.928 62.649 523.491 62.649ZM360.042 169.265C341.209 169.265 322.799 163.68 307.139 153.216C291.48 142.753 279.276 127.881 272.069 110.481C264.862 93.0811 262.976 73.935 266.651 55.4637C270.325 36.9923 279.395 20.0254 292.712 6.70847C306.029 -6.60851 322.996 -15.6774 341.468 -19.3515C359.939 -23.0255 379.085 -21.1397 396.485 -13.9324C413.884 -6.72514 428.756 5.47983 439.219 21.1391C449.682 36.7984 455.267 55.2088 455.267 74.042C455.267 86.5471 452.804 98.9296 448.018 110.483C443.233 122.036 436.219 132.533 427.376 141.376C418.534 150.218 408.036 157.232 396.483 162.017C384.93 166.802 372.547 169.265 360.042 169.265Z" fill="#F2F2F2"/>
<path d="M213.491 681.649L182.451 677.708C181.761 671.592 180.646 665.531 179.114 659.569L208.046 644.308C209.386 643.791 209.605 641.108 208.534 638.297L204.166 626.858C203.093 624.051 201.138 622.189 199.796 622.701L167.771 630.486C164.702 624.718 161.213 619.184 157.332 613.929L175.372 590.911C176.387 589.894 175.486 587.347 173.363 585.224L164.705 576.566C162.581 574.442 160.034 573.542 159.021 574.557L136.741 591.817C131.364 587.196 125.628 583.009 119.587 579.297L130.8 548.672C131.459 547.397 129.831 545.245 127.163 543.863L116.289 538.239C113.619 536.862 110.918 536.774 110.259 538.05L91.089 566.2C82.7232 563.498 74.1095 561.635 65.375 560.638L61.436 529.6C61.436 528.162 59 527 55.995 527H43.751C40.751 527 38.31 528.164 38.31 529.6L34.541 560.657C26.0052 561.64 17.5852 563.451 9.40001 566.064L-8.75999 534.764C-9.31999 533.443 -12.017 533.312 -14.787 534.48L-26.064 539.242C-28.83 540.409 -30.626 542.433 -30.064 543.754L-19.833 579.519C-25.9519 583.3 -31.7549 587.57 -37.185 592.287L-60.065 574.563C-61.081 573.548 -63.626 574.444 -65.752 576.572L-74.408 585.226C-76.532 587.35 -77.432 589.899 -76.417 590.914L-57.782 614.695C-61.6992 620.078 -65.2071 625.748 -68.276 631.656L-99.62 624.177C-100.964 623.677 -102.912 625.538 -103.973 628.353L-108.295 639.8C-109.354 642.611 -109.124 645.3 -107.781 645.812L-79.293 660.685C-80.685 666.286 -81.7109 671.971 -82.364 677.705L-113.4 681.649C-114.837 681.649 -116 684.083 -116 687.087V699.331C-116 702.331 -114.835 704.775 -113.4 704.775L-82.341 708.541C-81.5067 715.732 -80.0857 722.842 -78.092 729.801L-106.021 746.342C-107.338 746.909 -107.44 749.608 -106.248 752.368L-101.385 763.603C-100.193 766.358 -98.154 768.135 -96.835 767.566L-66.095 758.466C-61.7267 766.198 -56.5983 773.475 -50.786 780.189L-69.751 804.389C-70.766 805.409 -69.866 807.954 -67.742 810.078L-59.084 818.736C-56.96 820.862 -54.415 821.761 -53.4 820.745L-28.014 801.08C-23.9155 804.046 -19.6524 806.777 -15.245 809.26L-23.964 837.987C-24.543 839.299 -22.784 841.347 -20.037 842.563L-8.83202 847.502C-6.08502 848.716 -3.38701 848.632 -2.80602 847.323L12.976 821.092C20.0861 823.146 27.3554 824.603 34.708 825.448L38.65 856.484C38.65 857.922 41.085 859.084 44.09 859.084H56.333C59.333 859.084 61.776 857.919 61.776 856.484L65.543 825.428C72.5228 824.618 79.4272 823.254 86.191 821.35L98.579 847.01C99.036 848.375 101.714 848.71 104.566 847.752L116.173 843.86C119.022 842.904 120.963 841.023 120.506 839.66L114.37 809.811C119.209 807.135 123.877 804.16 128.347 800.905L153.674 820.522C154.69 821.537 157.235 820.641 159.361 818.514L168.019 809.858C170.142 807.735 171.043 805.186 170.027 804.17L151.063 779.97C156.728 773.398 161.738 766.289 166.023 758.744L193.707 768.863C194.986 769.514 197.131 767.869 198.494 765.196L204.051 754.284C205.414 751.605 205.482 748.908 204.203 748.254L178.003 730.43C180.092 723.271 181.574 715.948 182.432 708.539L213.492 704.773C214.929 704.773 216.092 702.333 216.092 699.329V687.088C216.093 684.083 214.928 681.649 213.491 681.649ZM50.042 788.265C31.2088 788.265 12.7986 782.68 -2.86052 772.216C-18.5196 761.753 -30.7243 746.881 -37.9312 729.481C-45.1381 712.081 -47.0235 692.935 -43.3491 674.464C-39.6746 655.992 -30.6054 639.025 -17.2881 625.708C-3.97088 612.391 12.9962 603.323 31.4676 599.649C49.939 595.974 69.0851 597.86 86.4847 605.068C103.884 612.275 118.756 624.48 129.219 640.139C139.682 655.798 145.267 674.209 145.267 693.042C145.267 705.547 142.804 717.93 138.018 729.483C133.233 741.036 126.219 751.533 117.376 760.376C108.534 769.218 98.0361 776.232 86.4829 781.017C74.9296 785.802 62.547 788.265 50.042 788.265Z" fill="#F2F2F2"/>
<path d="M102.543 250.531L83.368 248.099C82.942 244.321 82.253 240.577 81.306 236.894L99.179 227.467C100.006 227.147 100.141 225.488 99.479 223.753L96.779 216.687C96.117 214.955 94.908 213.804 94.079 214.12L74.297 218.929C72.4014 215.366 70.2459 211.948 67.848 208.702L78.992 194.482C79.619 193.854 79.063 192.282 77.751 190.968L72.402 185.62C71.09 184.308 69.518 183.753 68.891 184.379L55.13 195.044C51.8089 192.189 48.2661 189.603 44.535 187.31L51.462 168.391C51.869 167.603 50.862 166.273 49.215 165.42L42.498 161.944C40.85 161.093 39.181 161.044 38.773 161.827L26.93 179.214C21.7624 177.545 16.4415 176.394 11.046 175.778L8.61201 156.606C8.61201 155.719 7.11201 155 5.25201 155H-2.311C-4.167 155 -5.673 155.719 -5.673 156.606L-8.001 175.792C-13.2737 176.399 -18.4748 177.518 -23.531 179.132L-34.75 159.795C-35.096 158.977 -36.762 158.895 -38.474 159.62L-45.439 162.56C-47.15 163.282 -48.257 164.531 -47.913 165.348L-41.591 187.441C-45.3712 189.777 -48.9562 192.414 -52.311 195.328L-66.445 184.379C-67.073 183.754 -68.645 184.306 -69.959 185.62L-75.307 190.966C-76.617 192.278 -77.174 193.853 -76.547 194.479L-65.035 209.169C-67.4551 212.494 -69.6222 215.996 -71.518 219.646L-90.882 215.028C-91.714 214.715 -92.915 215.868 -93.571 217.607L-96.241 224.683C-96.894 226.419 -96.751 228.083 -95.922 228.397L-78.322 237.585C-79.1824 241.044 -79.8171 244.556 -80.222 248.098L-99.394 250.53C-100.281 250.53 -101 252.03 -101 253.892V261.455C-101 263.311 -100.281 264.818 -99.394 264.818L-80.208 267.145C-79.6931 271.587 -78.8151 275.979 -77.583 280.278L-94.836 290.496C-95.65 290.846 -95.712 292.515 -94.976 294.22L-91.976 301.159C-91.239 302.859 -89.976 303.959 -89.165 303.606L-70.176 297.987C-67.4773 302.763 -64.3094 307.258 -60.719 311.406L-72.434 326.353C-73.061 326.983 -72.506 328.553 -71.194 329.867L-65.845 335.216C-64.533 336.528 -62.961 337.084 -62.334 336.456L-46.652 324.308C-44.1202 326.141 -41.4867 327.828 -38.764 329.363L-44.151 347.107C-44.508 347.92 -43.422 349.184 -41.724 349.934L-34.803 352.986C-33.103 353.736 -31.439 353.686 -31.082 352.873L-21.331 336.673C-16.9385 337.943 -12.4475 338.843 -7.90501 339.364L-5.471 358.536C-5.471 359.423 -3.971 360.142 -2.111 360.142H5.452C7.308 360.142 8.814 359.423 8.814 358.536L11.142 339.351C15.4538 338.849 19.7192 338.007 23.898 336.832L31.549 352.682C31.831 353.526 33.486 353.729 35.249 353.14L42.418 350.74C44.177 350.149 45.378 348.987 45.095 348.148L41.305 329.709C44.2942 328.056 47.1781 326.219 49.94 324.209L65.585 336.326C66.213 336.953 67.785 336.399 69.099 335.086L74.447 329.738C75.759 328.426 76.314 326.853 75.688 326.224L63.978 311.271C67.4778 307.211 70.5731 302.819 73.22 298.158L90.32 304.409C91.111 304.809 92.435 303.796 93.277 302.144L96.709 295.404C97.551 293.748 97.595 292.082 96.804 291.678L80.618 280.668C81.9088 276.246 82.8241 271.722 83.354 267.146L102.541 264.819C103.427 264.819 104.147 263.312 104.147 261.456V253.893C104.149 252.036 103.429 250.531 102.543 250.531ZM1.574 316.393C-10.0599 316.393 -21.4325 312.943 -31.1058 306.48C-40.779 300.016 -48.3183 290.83 -52.7704 280.081C-57.2225 269.333 -58.3874 257.506 -56.1177 246.095C-53.8481 234.685 -48.2458 224.204 -40.0194 215.978C-31.793 207.751 -21.312 202.149 -9.9016 199.879C1.50875 197.61 13.3359 198.774 24.0842 203.227C34.8325 207.679 44.0193 215.218 50.4827 224.891C56.9461 234.564 60.396 245.937 60.396 257.571C60.3957 273.171 54.1984 288.133 43.1671 299.164C32.1359 310.195 17.1745 316.393 1.574 316.393Z" fill="#F2F2F2"/>
</g>
</svg>
